<svg width="156" height="27" viewBox="0 0 156 27" fill="none" xmlns="http://www.w3.org/2000/svg">
<path fill-rule="evenodd" clip-rule="evenodd" d="M12.0145 26.4292L11.9729 26.429C11.6635 26.4245 11.355 26.3422 11.0777 26.1821L5.42002 22.9156L14.5201 22.9469C14.5547 22.9471 14.589 22.9457 14.6229 22.943C14.6563 22.9459 14.6901 22.9474 14.7242 22.9475C15.3938 22.9498 15.9386 22.4088 15.9409 21.7392L15.9803 10.2805C15.9826 9.61082 15.4416 9.0661 14.772 9.06379C14.1023 9.06149 13.5576 9.60248 13.5553 10.2721L13.52 20.5185L4.79796 20.4884L4.85524 3.83968L11.0777 0.247146C11.6485 -0.0823818 12.3517 -0.0823819 12.9224 0.247146L18.6426 3.54972L9.48278 3.51821C8.81313 3.5159 8.26841 4.05689 8.2661 4.72654C8.26595 4.77037 8.26813 4.81367 8.27252 4.85632C8.26789 4.89871 8.26544 4.94177 8.26529 4.98537L8.226 16.4045C8.22369 17.0742 8.76468 17.6189 9.43433 17.6212C10.104 17.6235 10.6487 17.0825 10.651 16.4129L10.687 5.94739L18.8577 5.97551L18.7999 22.7888L12.9224 26.1821C12.6413 26.3444 12.3282 26.4267 12.0145 26.4292ZM21.2297 21.3859L22.769 20.4971C23.3398 20.1676 23.6914 19.5586 23.6914 18.8996V7.52967C23.6914 6.87062 23.3398 6.26162 22.769 5.9321L21.2858 5.07577L21.2297 21.3859ZM2.42537 5.24257L1.23108 5.9321C0.660318 6.26162 0.308716 6.87062 0.308716 7.52967V18.8996C0.308716 19.5586 0.660318 20.1676 1.23108 20.4971L2.37062 21.1551L2.42537 5.24257Z" fill="#8766E0"/>
<path d="M39.174 21.7146H37.2392V7.77492H32.1109V6.16649H44.3023V7.77492H39.174V21.7146ZM47.6216 21.7146H45.7335V9.82624H47.4818V12.4137C48.2044 10.3158 49.4632 9.56982 50.6054 9.56982C50.8618 9.56982 51.2814 9.59314 51.6777 9.733V11.3414H50.5122C48.8571 11.3414 47.6216 12.7167 47.6216 15.1643V21.7146ZM65.2315 20.4791V21.7379C64.672 21.9244 64.0892 21.9943 63.7163 21.9943C62.2244 21.9943 61.6416 21.3883 61.6416 19.57C60.6626 21.4582 59.0309 21.9943 57.6322 21.9943C56.0005 21.9943 53.7627 21.2717 53.7627 18.6143C53.7627 15.5373 56.187 15.0012 58.9143 14.8846L61.5484 14.7681V13.4394C61.5484 12.0174 61.0589 10.9918 58.7978 10.9918C57.5856 10.9918 56.1404 11.388 55.9539 13.0897L54.1823 12.9265C54.3921 10.3624 56.9795 9.56982 58.7978 9.56982C62.0845 9.56982 63.4366 11.0384 63.4366 13.183V18.8707C63.4366 20.1062 63.5298 20.4791 64.369 20.4791H65.2315ZM61.5484 16.7262V16.0501L58.8677 16.1434C57.0728 16.2133 55.6508 16.7028 55.6508 18.5211C55.6508 20.316 57.3525 20.5025 58.215 20.5025C59.8934 20.5025 61.5484 19.2204 61.5484 16.7262ZM78.1371 21.7146H76.3888V19.3369C75.4098 21.2484 74.0111 21.9943 72.3095 21.9943C69.722 21.9943 67.5075 20.1994 67.5075 15.7704C67.5075 11.4347 69.6987 9.56982 72.3095 9.56982C74.0111 9.56982 75.4331 10.2925 76.3422 12.1107L76.249 10.3158V4.90772H78.1371V21.7146ZM72.7291 20.5025C74.8969 20.5025 76.2723 19.1738 76.2723 15.7704C76.2723 12.3904 74.9203 11.0617 72.7291 11.0617C70.8642 11.0617 69.4423 12.4836 69.4423 15.7704C69.4423 19.1038 70.8642 20.5025 72.7291 20.5025ZM90.9515 18.4278H92.793C92.2336 20.6656 90.5785 21.9943 87.8745 21.9943C84.3546 21.9943 82.28 19.7099 82.28 15.817C82.28 11.9242 84.4945 9.56982 87.8745 9.56982C91.2079 9.56982 92.9096 11.7377 92.9096 15.3508L92.863 16.2366H84.2381C84.308 18.9406 85.5668 20.4791 87.8279 20.4791C89.6228 20.4791 90.6019 19.7332 90.9515 18.4278ZM84.2614 14.838H90.9748C90.9049 12.4836 90.0424 11.0617 87.8279 11.0617C85.6833 11.0617 84.4945 12.437 84.2614 14.838ZM102.472 21.7146H100.537V7.77492H95.4089V6.16649H107.6V7.77492H102.472V21.7146ZM110.92 21.7146H109.032V9.82624H110.78V12.4137C111.502 10.3158 112.761 9.56982 113.903 9.56982C114.16 9.56982 114.579 9.59314 114.976 9.733V11.3414H113.81C112.155 11.3414 110.92 12.7167 110.92 15.1643V21.7146ZM128.53 20.4791V21.7379C127.97 21.9244 127.387 21.9943 127.014 21.9943C125.522 21.9943 124.94 21.3883 124.94 19.57C123.961 21.4582 122.329 21.9943 120.93 21.9943C119.299 21.9943 117.061 21.2717 117.061 18.6143C117.061 15.5373 119.485 15.0012 122.212 14.8846L124.846 14.7681V13.4394C124.846 12.0174 124.357 10.9918 122.096 10.9918C120.884 10.9918 119.438 11.388 119.252 13.0897L117.48 12.9265C117.69 10.3624 120.278 9.56982 122.096 9.56982C125.383 9.56982 126.735 11.0384 126.735 13.183V18.8707C126.735 20.1062 126.828 20.4791 127.667 20.4791H128.53ZM124.846 16.7262V16.0501L122.166 16.1434C120.371 16.2133 118.949 16.7028 118.949 18.5211C118.949 20.316 120.651 20.5025 121.513 20.5025C123.191 20.5025 124.846 19.2204 124.846 16.7262ZM139.407 18.1947H141.249C140.736 20.5957 139.034 21.9943 136.4 21.9943C132.88 21.9943 130.806 19.7099 130.806 15.817C130.806 11.9242 132.973 9.56982 136.4 9.56982C139.034 9.56982 140.736 10.8985 141.225 13.2762L139.384 13.4161C139.034 11.9009 138.078 11.0617 136.4 11.0617C133.976 11.0617 132.74 12.81 132.74 15.7937C132.74 18.7775 133.999 20.4791 136.4 20.4791C138.102 20.4791 139.057 19.6866 139.407 18.1947ZM155.024 21.7146H152.926L148.66 15.3508L146.982 16.8427V21.7146H145.094V4.90772H146.982V14.6748L152.483 9.82624H154.837L150.035 14.0688L155.024 21.7146Z" fill="#202020"/>
</svg>
